<svg version="1.1" xmlns="http://www.w3.org/2000/svg" xmlns:xlink="http://www.w3.org/1999/xlink" width="16px" height="16px" viewBox="0,0,256,256"><g fill="#211e1a" fill-rule="nonzero" stroke="none" stroke-width="1" stroke-linecap="butt" stroke-linejoin="miter" stroke-miterlimit="10" stroke-dasharray="" stroke-dashoffset="0" font-family="none" font-weight="none" font-size="none" text-anchor="none" style="mix-blend-mode: normal"><g transform="scale(16,16)"><path d="M2.48242,1.98242c-0.82253,0 -1.5,0.67747 -1.5,1.5v8c0,0.82253 0.67747,1.5 1.5,1.5h4.78906c0.61695,1.7504 2.27102,3.01758 4.22852,3.01758c2.47936,0 4.5,-2.02064 4.5,-4.5c0,-1.06957 -0.3909,-2.04101 -1.01758,-2.81445v-5.20312c0,-0.82253 -0.67747,-1.5 -1.5,-1.5zM2.48242,2.98242h11c0.28147,0 0.5,0.21853 0.5,0.5v0.5h-12v-0.5c0,-0.28147 0.21853,-0.5 0.5,-0.5zM1.98242,4.98242h12v2.76953c-0.58401,-0.38835 -1.269,-0.62353 -2,-0.70312v-0.06641h-6v1h2.74609c-0.36373,0.2874 -0.69436,0.61558 -0.95508,1h-1.79102v1h1.29883c-0.17225,0.47631 -0.28125,0.98295 -0.28125,1.51758c0,0.16533 0.03132,0.32163 0.04883,0.48242h-4.56641c-0.28147,0 -0.5,-0.21853 -0.5,-0.5zM3.98242,6.98242v1h1v-1zM11.5,8c1.93892,0 3.5,1.56108 3.5,3.5c0,1.93892 -1.56108,3.5 -3.5,3.5c-1.93892,0 -3.5,-1.56108 -3.5,-3.5c0,-1.93892 1.56108,-3.5 3.5,-3.5zM3.98242,8.98242v1h1v-1zM11,9v2h-2v1h2v2h1v-2h2v-1h-2v-2z"></path></g></g></svg>