<svg version="1.1" xmlns="http://www.w3.org/2000/svg" xmlns:xlink="http://www.w3.org/1999/xlink" width="30px"
  height="30px" viewBox="0,0,256,256">
  <g fill="#0d0d0d" fill-rule="nonzero" stroke="none" stroke-width="1" stroke-linecap="butt" stroke-linejoin="miter"
    stroke-miterlimit="10" stroke-dasharray="" stroke-dashoffset="0" font-family="none" font-weight="none"
    font-size="none" text-anchor="none" style="mix-blend-mode: normal">
    <g transform="scale(8.53333,8.53333)">
      <path
        d="M15,27c6.627,0 12,-5.373 12,-12c0,-6.627 -5.373,-12 -12,-12c-6.627,0 -12,5.373 -12,12c0,6.627 5.373,12 12,12zM9.293,14.293l4,-4c0.195,-0.195 0.451,-0.293 0.707,-0.293c0.256,0 0.512,0.098 0.707,0.293c0.391,0.391 0.391,1.023 0,1.414l-2.293,2.293h7.586c0.552,0 1,0.447 1,1c0,0.553 -0.448,1 -1,1h-7.586l2.293,2.293c0.391,0.391 0.391,1.023 0,1.414c-0.391,0.391 -1.023,0.391 -1.414,0l-4,-4c-0.391,-0.391 -0.391,-1.023 0,-1.414z">
      </path>
    </g>
  </g>
</svg>