<svg version="1.1" xmlns="http://www.w3.org/2000/svg" xmlns:xlink="http://www.w3.org/1999/xlink" width="16px" height="16px" viewBox="0,0,256,256"><g fill="currentColor" fill-rule="nonzero" stroke="none" stroke-width="1" stroke-linecap="butt" stroke-linejoin="miter" stroke-miterlimit="10" stroke-dasharray="" stroke-dashoffset="0" font-family="none" font-weight="none" font-size="none" text-anchor="none" style="mix-blend-mode: normal"><g transform="scale(16,16)"><path d="M4.5,2c-0.82253,0 -1.5,0.67747 -1.5,1.5v9c0,0.82253 0.67747,1.5 1.5,1.5h7c0.82253,0 1.5,-0.67747 1.5,-1.5v-7.20703l-0.14648,-0.14648l-3.14648,-3.14648zM4.5,3h4.5v3h3v6.5c0,0.28147 -0.21853,0.5 -0.5,0.5h-7c-0.28147,0 -0.5,-0.21853 -0.5,-0.5v-9c0,-0.28147 0.21853,-0.5 0.5,-0.5zM10,3.70703l1.29297,1.29297h-1.29297zM6.5,7l1.38086,1.38086c-0.1413,0.1054 -0.38346,0.2809 -0.77148,0.61719c-0.24397,0.21144 -0.48988,0.43957 -0.69141,0.66797c-0.20153,0.2284 -0.41797,0.39648 -0.41797,0.83398c0,0.3786 0.15864,0.71908 0.37891,0.94141c0.22027,0.22233 0.48013,0.34324 0.7168,0.41992c0.47334,0.15336 0.91406,0.13867 0.91406,0.13867h0.99023v-1h-1.00391h-0.00586c0,0 -0.30928,-0.00021 -0.58594,-0.08984c-0.13833,-0.04482 -0.25347,-0.11033 -0.31445,-0.17187c-0.04636,-0.04679 -0.06941,-0.09432 -0.08008,-0.16797c0.01464,-0.00207 0.05294,-0.12484 0.1582,-0.24414c0.15004,-0.17004 0.37287,-0.37941 0.59766,-0.57422c0.41016,-0.35548 0.75471,-0.6105 0.82422,-0.66211l1.41016,1.41016v-3.5z"></path></g></g></svg>