<svg version="1.1" xmlns="http://www.w3.org/2000/svg" xmlns:xlink="http://www.w3.org/1999/xlink" width="30px"
  height="30px" viewBox="0,0,256,256">
  <g fill="#0f0e0e" fill-rule="nonzero" stroke="none" stroke-width="1" stroke-linecap="butt" stroke-linejoin="miter"
    stroke-miterlimit="10" stroke-dasharray="" stroke-dashoffset="0" font-family="none" font-weight="none"
    font-size="none" text-anchor="none" style="mix-blend-mode: normal">
    <g transform="scale(8.53333,8.53333)">
      <path
        d="M6,4c-1.105,0 -2,0.895 -2,2v18c0,1.105 0.895,2 2,2h18c1.105,0 2,-0.895 2,-2v-18c0,-1.105 -0.895,-2 -2,-2zM9,10c0.552,0 1,0.447 1,1c0,0.552 -0.448,1 -1,1c-0.552,0 -1,-0.448 -1,-1c0,-0.552 0.448,-1 1,-1zM16.0957,11.00391c0.09737,0.00927 0.19361,0.03352 0.28711,0.07227c0.374,0.154 0.61719,0.51883 0.61719,0.92383v2h4c0.553,0 1,0.447 1,1c0,0.553 -0.447,1 -1,1h-4v2c0,0.404 -0.24319,0.76983 -0.61719,0.92383c-0.374,0.155 -0.80384,0.0692 -1.08984,-0.2168l-3,-3c-0.391,-0.391 -0.391,-1.02306 0,-1.41406l3,-3c0.2145,-0.2145 0.51061,-0.31686 0.80273,-0.28906zM9,14c0.552,0 1,0.448 1,1c0,0.552 -0.448,1 -1,1c-0.553,0 -1,-0.448 -1,-1c0,-0.552 0.448,-1 1,-1zM9,18c0.552,0 1,0.448 1,1c0,0.552 -0.448,1 -1,1c-0.552,0 -1,-0.448 -1,-1c0,-0.552 0.448,-1 1,-1z">
      </path>
    </g>
  </g>
</svg>