<svg version="1.1" xmlns="http://www.w3.org/2000/svg" xmlns:xlink="http://www.w3.org/1999/xlink" width="16px" height="16px" viewBox="0,0,256,256"><g fill="#181613" fill-rule="nonzero" stroke="none" stroke-width="1" stroke-linecap="butt" stroke-linejoin="miter" stroke-miterlimit="10" stroke-dasharray="" stroke-dashoffset="0" font-family="none" font-weight="none" font-size="none" text-anchor="none" style="mix-blend-mode: normal"><g transform="scale(16,16)"><path d="M2.283,4l-1.626,-1.627l1.414,-1.414l0.929,0.93l1.755,-1.841l1.414,1.414l-2.462,2.528c-0.558,0.004 -0.866,0.006 -1.424,0.01zM9,2h7v2h-7zM2.283,9l-1.626,-1.627l1.414,-1.414l0.929,0.93l1.755,-1.841l1.414,1.414l-2.462,2.528c-0.558,0.004 -0.866,0.006 -1.424,0.01zM9,7h7v2h-7zM9,12h7v2h-7zM3,11c-1.10457,0 -2,0.89543 -2,2c0,1.10457 0.89543,2 2,2c1.10457,0 2,-0.89543 2,-2c0,-1.10457 -0.89543,-2 -2,-2z"></path></g></g></svg>